# xmcd
#
# Track frame offsets: 
#        182
#        16672
#        34915
#        53502
#        70282
#        86790
#        99332
#        114945
#        132340
#        148232
#        162735
#        176302
#
# Disc length: 2559 seconds
#
# Revision: 2
# Processed by: cddbd v1.5.1PL2 Copyright (c) Steve Scherf et al.
# Submitted via: ExactAudioCopy v0.95b3
#
DISCID=9d09fd0c
DTITLE=Raymond Lefevre Et Son Orchestre - Demonstration
DYEAR=1982
DGENRE=Orchester
TTITLE0=Tout Pour La Musique
TTITLE1=Le Lac Du Connemara
TTITLE2=Lucie
TTITLE3=Kaleidoscope
TTITLE4=Grand Chariot (Demonstration)
TTITLE5=La Soupe Aux Choux
TTITLE6=Ai No Corrida
TTITLE7=Don't Cry For Me Argentina
TTITLE8=Hearts
TTITLE9=Twinklin' Twilight
TTITLE10=Myriades
TTITLE11=Mutation En Re
EXTD=
EXTT0=
EXTT1=
EXTT2=
EXTT3=
EXTT4=
EXTT5=
EXTT6=
EXTT7=
EXTT8=
EXTT9=
EXTT10=
EXTT11=
PLAYORDER=
